<?xml version="1.0" encoding="utf-8"?>
<svg viewBox="0 0 82 72" style="shape-rendering: crispedges;" xmlns="http://www.w3.org/2000/svg" xmlns:xlink="http://www.w3.org/1999/xlink">
  <defs>
    <linearGradient id="linear-gradient" x1="-3918.19" y1="8047.29" x2="-3910.1" y2="8047.29" gradientTransform="matrix(-0.958255, 0, 0, -0.98628, -3646.548923, 7984.551758)" gradientUnits="userSpaceOnUse">
      <stop offset="0" stop-color="#f2cc0c"/>
      <stop offset="1" stop-color="#ff9830"/>
    </linearGradient>
    <linearGradient id="linear-gradient-2" x1="-3918.19" y1="8010.84" x2="-3910.1" y2="8010.84" gradientTransform="matrix(-0.958255, 0, 0, -0.98628, -3551.116306, 8027.637207)" xlink:href="#linear-gradient"/>
    <linearGradient id="linear-gradient-1" x1="-3918.19" y1="8010.84" x2="-3910.1" y2="8010.84" gradientTransform="matrix(-0.958255, 0, 0, -0.98628, -3538.165771, 8042.973145)" xlink:href="#gradient-1"/>
    <linearGradient id="gradient-1" x1="-3918.19" y1="8047.29" x2="-3910.1" y2="8047.29" gradientTransform="matrix(-0.958255, 0, 0, -0.98628, -3646.548923, 7984.551758)" gradientUnits="userSpaceOnUse">
      <stop offset="0" stop-color="#f2cc0c"/>
      <stop offset="1" stop-color="#ff9830"/>
    </linearGradient>
    <linearGradient id="gradient-1-1" x1="-3918.19" y1="8010.84" x2="-3910.1" y2="8010.84" gradientTransform="matrix(-0.958255, 0, 0, -0.98628, -3511.285889, 8043.145996)" xlink:href="#gradient-2"/>
    <linearGradient id="gradient-2" x1="-3918.19" y1="8047.29" x2="-3910.1" y2="8047.29" gradientTransform="matrix(-0.958255, 0, 0, -0.98628, -3646.548923, 7984.551758)" gradientUnits="userSpaceOnUse">
      <stop offset="0" stop-color="#f2cc0c"/>
      <stop offset="1" stop-color="#ff9830"/>
    </linearGradient>
    <linearGradient id="gradient-1-2" x1="-3918.19" y1="8010.84" x2="-3910.1" y2="8010.84" gradientTransform="matrix(-0.958255, 0, 0, -0.98628, -3524.196289, 8053.194336)" xlink:href="#gradient-3"/>
    <linearGradient id="gradient-3" x1="-3918.19" y1="8047.29" x2="-3910.1" y2="8047.29" gradientTransform="matrix(-0.958255, 0, 0, -0.98628, -3646.548923, 7984.551758)" gradientUnits="userSpaceOnUse">
      <stop offset="0" stop-color="#f2cc0c"/>
      <stop offset="1" stop-color="#ff9830"/>
    </linearGradient>
    <linearGradient id="gradient-2-1" x1="-3918.19" y1="8010.84" x2="-3910.1" y2="8010.84" gradientTransform="matrix(-0.958255, 0, 0, -0.98628, -3498.316406, 8053.367187)" xlink:href="#gradient-4"/>
    <linearGradient id="gradient-4" x1="-3918.19" y1="8047.29" x2="-3910.1" y2="8047.29" gradientTransform="matrix(-0.958255, 0, 0, -0.98628, -3646.548923, 7984.551758)" gradientUnits="userSpaceOnUse">
      <stop offset="0" stop-color="#f2cc0c"/>
      <stop offset="1" stop-color="#ff9830"/>
    </linearGradient>
  </defs>
  <g id="Layer_2" data-name="Layer 2" transform="matrix(1, 0, 0, 1, -97.884468, -42.507584)">
    <g id="Layer_1-2" data-name="Layer 1">
      <path class="cls-1" d="M 176.494 51.575 L 114.256 51.575 L 114.256 43.685 L 176.494 43.685 C 177.023 43.685 177.453 44.127 177.453 44.671 L 177.453 50.589 C 177.453 51.133 177.023 51.575 176.494 51.575 Z" style="fill: rgb(56, 101, 171);"/>
      <path class="cls-1" d="M 157.329 69.595 L 114.256 69.595 L 114.256 61.704 L 157.377 61.704 C 157.906 61.704 158.335 62.146 158.335 62.691 L 158.335 68.608 C 158.336 69.173 157.877 69.623 157.329 69.595 Z" style="fill: rgb(56, 101, 171);"/>
      <path class="cls-2" d="M 106.954 62.799 C 106.585 62.434 106.148 62.149 105.67 61.961 C 104.723 61.566 103.665 61.566 102.718 61.961 C 102.244 62.15 101.81 62.435 101.444 62.799 C 101.089 63.18 100.812 63.629 100.629 64.121 C 100.009 65.606 100.332 67.329 101.444 68.47 C 101.815 68.833 102.247 69.124 102.718 69.328 C 103.657 69.762 104.731 69.762 105.67 69.328 C 106.141 69.127 106.576 68.844 106.954 68.49 C 108.413 66.898 108.413 64.411 106.954 62.819 Z" style="fill: rgb(138, 184, 255);"/>
      <path class="cls-3" d="M 106.954 44.819 C 106.579 44.461 106.144 44.177 105.67 43.981 C 104.723 43.586 103.665 43.586 102.718 43.981 C 102.247 44.177 101.815 44.462 101.444 44.819 C 101.089 45.2 100.812 45.649 100.629 46.141 C 100.006 47.628 100.328 49.357 101.444 50.5 C 101.821 50.849 102.252 51.132 102.718 51.339 C 103.659 51.763 104.729 51.763 105.67 51.339 C 106.138 51.13 106.571 50.847 106.954 50.5 C 108.052 49.348 108.373 47.63 107.768 46.141 C 107.585 45.649 107.308 45.2 106.954 44.819 Z" style="fill: url(#linear-gradient);"/>
      <path class="cls-4" d="M 106.954 80.779 C 106.585 80.414 106.148 80.129 105.67 79.941 C 104.726 79.535 103.663 79.535 102.718 79.941 C 102.244 80.13 101.81 80.415 101.444 80.779 C 101.09 81.157 100.813 81.603 100.629 82.091 C 100.006 83.578 100.328 85.307 101.444 86.45 C 101.819 86.802 102.25 87.086 102.718 87.288 C 103.659 87.713 104.729 87.713 105.67 87.288 C 106.139 87.084 106.573 86.8 106.954 86.45 C 108.052 85.298 108.373 83.58 107.768 82.091 C 107.584 81.603 107.307 81.157 106.954 80.779 Z" style="fill: url(#linear-gradient-2);"/>
      <path class="cls-1" d="M 176.22 87.593 L 113.982 87.593 L 113.982 79.703 L 176.22 79.703 C 176.749 79.703 177.179 80.145 177.179 80.689 L 177.179 86.607 C 177.179 87.151 176.749 87.593 176.22 87.593 Z" style="fill: rgb(56, 101, 171);"/>
      <path class="cls-2" d="M 106.904 96.135 C 106.535 95.77 106.098 95.485 105.62 95.297 C 104.673 94.902 103.615 94.902 102.668 95.297 C 102.194 95.486 101.76 95.771 101.394 96.135 C 101.039 96.516 100.762 96.965 100.579 97.457 C 99.959 98.942 100.282 100.665 101.394 101.806 C 101.765 102.169 102.197 102.46 102.668 102.664 C 103.607 103.098 104.681 103.098 105.62 102.664 C 106.091 102.463 106.526 102.18 106.904 101.826 C 108.363 100.234 108.363 97.747 106.904 96.155 Z" style="fill: rgb(138, 184, 255);"/>
      <path class="cls-4" d="M 119.904 96.115 C 119.535 95.75 119.098 95.465 118.62 95.277 C 117.676 94.871 116.613 94.871 115.668 95.277 C 115.194 95.466 114.76 95.751 114.394 96.115 C 114.04 96.493 113.763 96.939 113.579 97.427 C 112.956 98.914 113.278 100.643 114.394 101.786 C 114.769 102.138 115.2 102.422 115.668 102.624 C 116.609 103.049 117.679 103.049 118.62 102.624 C 119.089 102.42 119.523 102.136 119.904 101.786 C 121.002 100.634 121.323 98.916 120.718 97.427 C 120.534 96.939 120.257 96.493 119.904 96.115 Z" style="fill: url(#linear-gradient-1);"/>
      <path class="cls-2" d="M 133.784 96.308 C 133.415 95.943 132.978 95.658 132.5 95.47 C 131.553 95.075 130.495 95.075 129.548 95.47 C 129.074 95.659 128.64 95.944 128.274 96.308 C 127.919 96.689 127.642 97.138 127.459 97.63 C 126.839 99.115 127.162 100.838 128.274 101.979 C 128.645 102.342 129.077 102.633 129.548 102.837 C 130.487 103.271 131.561 103.271 132.5 102.837 C 132.971 102.636 133.406 102.353 133.784 101.999 C 135.243 100.407 135.243 97.92 133.784 96.328 Z" style="fill: rgb(138, 184, 255);"/>
      <path class="cls-4" d="M 146.784 96.288 C 146.415 95.923 145.978 95.638 145.5 95.45 C 144.556 95.044 143.493 95.044 142.548 95.45 C 142.074 95.639 141.64 95.924 141.274 96.288 C 140.92 96.666 140.643 97.112 140.459 97.6 C 139.836 99.087 140.158 100.816 141.274 101.959 C 141.649 102.311 142.08 102.595 142.548 102.797 C 143.489 103.222 144.559 103.222 145.5 102.797 C 145.969 102.593 146.403 102.309 146.784 101.959 C 147.882 100.807 148.203 99.089 147.598 97.6 C 147.414 97.112 147.137 96.666 146.784 96.288 Z" style="fill: url(#gradient-1-1);"/>
      <path class="cls-4" d="M 133.873 106.336 C 133.504 105.971 133.067 105.686 132.589 105.498 C 131.645 105.092 130.582 105.092 129.637 105.498 C 129.163 105.687 128.729 105.972 128.363 106.336 C 128.009 106.714 127.732 107.16 127.548 107.648 C 126.925 109.135 127.247 110.864 128.363 112.007 C 128.738 112.359 129.169 112.643 129.637 112.845 C 130.578 113.27 131.648 113.27 132.589 112.845 C 133.058 112.641 133.492 112.357 133.873 112.007 C 134.971 110.855 135.292 109.137 134.687 107.648 C 134.503 107.16 134.226 106.714 133.873 106.336 Z" style="fill: url(#gradient-1-2);"/>
      <path class="cls-2" d="M 146.753 106.529 C 146.384 106.164 145.947 105.879 145.469 105.691 C 144.522 105.296 143.464 105.296 142.517 105.691 C 142.043 105.88 141.609 106.165 141.243 106.529 C 140.888 106.91 140.611 107.359 140.428 107.851 C 139.808 109.336 140.131 111.059 141.243 112.2 C 141.614 112.563 142.046 112.854 142.517 113.058 C 143.456 113.492 144.53 113.492 145.469 113.058 C 145.94 112.857 146.375 112.574 146.753 112.22 C 148.212 110.628 148.212 108.141 146.753 106.549 Z" style="fill: rgb(138, 184, 255);"/>
      <path class="cls-4" d="M 159.753 106.509 C 159.384 106.144 158.947 105.859 158.469 105.671 C 157.525 105.265 156.462 105.265 155.517 105.671 C 155.043 105.86 154.609 106.145 154.243 106.509 C 153.889 106.887 153.612 107.333 153.428 107.821 C 152.805 109.308 153.127 111.037 154.243 112.18 C 154.618 112.532 155.049 112.816 155.517 113.018 C 156.458 113.443 157.528 113.443 158.469 113.018 C 158.938 112.814 159.372 112.53 159.753 112.18 C 160.851 111.028 161.172 109.31 160.567 107.821 C 160.383 107.333 160.106 106.887 159.753 106.509 Z" style="fill: url(#gradient-2-1);"/>
    </g>
  </g>
</svg>