<?xml version="1.0" encoding="utf-8"?>
<svg viewBox="0 0 82 72" style="shape-rendering: crispedges;" xmlns="http://www.w3.org/2000/svg">
  <g transform="matrix(1, 0, 0, 1, -0.067605, -0.056276)">
    <path d="M 44 36 L 55 35 L 53 24 Z" style="fill: rgb(224,183,130);"/>
    <path d="M 53 24 L 44 21 L 44 36 Z" style="fill: rgb(200,168,132);"/>
    <path d="M 59 53 L 65 35 L 55 35 Z" style="fill: rgb(247,175,114);"/>
    <path d="M 55 35 L 65 35 L 53 24 Z" style="fill: rgb(223,168,122);"/>
    <path d="M 27 32 L 37 45 L 44 36 Z" style="fill: rgb(223,197,140);"/>
    <path d="M 44 36 L 59 53 L 55 35 Z" style="fill: rgb(247,188,122);"/>
    <path d="M 68 17 L 53 11 L 53 24 Z" style="fill: rgb(157,110,114);"/>
    <path d="M 53 24 L 53 11 L 44 21 Z" style="fill: rgb(158,126,123);"/>
    <path d="M 27 20 L 27 32 L 44 21 Z" style="fill: rgb(147,135,133);"/>
    <path d="M 44 21 L 27 32 L 44 36 Z" style="fill: rgb(200,181,140);"/>
    <path d="M 65 35 L 68 17 L 53 24 Z" style="fill: rgb(193,134,114);"/>
    <path d="M 53 11 L 40 8 L 44 21 Z" style="fill: rgb(159,137,134);"/>
    <path d="M 40 8 L 27 20 L 44 21 Z" style="fill: rgb(136,126,133);"/>
    <path d="M 37 45 L 59 53 L 44 36 Z" style="fill: rgb(247,192,125);"/>
    <path d="M 59 53 L 73 45 L 65 35 Z" style="fill: rgb(248,161,108);"/>
    <path d="M 82 17 L 82 15.8 L 74 11 L 68 17 Z" style="fill: rgb(161,97,112);"/>
    <path d="M 82 14 L 80 11 L 74 11 L 82 15.8 Z" style="fill: rgb(164,96,114);"/>
    <path d="M 68 17 L 74 11 L 53 11 Z" style="fill: rgb(163,106,115);"/>
    <path d="M 53 11 L 47.5 0 L 43.07692307692308 0 L 40 8 Z" style="fill: rgb(169,147,145);"/>
    <path d="M 12 35 L 21 46 L 27 32 Z" style="fill: rgb(153,137,132);"/>
    <path d="M 27 32 L 21 46 L 37 45 Z" style="fill: rgb(189,159,132);"/>
    <path d="M 37 45 L 51 63 L 59 53 Z" style="fill: rgb(247,168,110);"/>
    <path d="M 37 64 L 51 63 L 37 45 Z" style="fill: rgb(248,178,118);"/>
    <path d="M 59 53 L 65 61 L 73 45 Z" style="fill: rgb(246,141,96);"/>
    <path d="M 51 63 L 65 61 L 59 53 Z" style="fill: rgb(247,144,99);"/>
    <path d="M 26 4 L 17 17 L 27 20 Z" style="fill: rgb(72,81,126);"/>
    <path d="M 27 20 L 17 17 L 27 32 Z" style="fill: rgb(98,97,125);"/>
    <path d="M 35.76470588235294 0 L 27.53846153846154 0 L 26 4 L 40 8 Z" style="fill: rgb(131,127,149);"/>
    <path d="M 40 8 L 26 4 L 27 20 Z" style="fill: rgb(114,111,136);"/>
    <path d="M 51.35 0 L 47.5 0 L 53 11 Z" style="fill: rgb(176,147,146);"/>
    <path d="M 21 46 L 37 64 L 37 45 Z" style="fill: rgb(206,150,119);"/>
    <path d="M 82 17 L 68 17 L 82 27.315789473684212 Z" style="fill: rgb(176,105,111);"/>
    <path d="M 60.526315789473685 0 L 51.35 0 L 53 11 Z" style="fill: rgb(177,134,138);"/>
    <path d="M 17 17 L 12 35 L 27 32 Z" style="fill: rgb(112,108,129);"/>
    <path d="M 82 31.90909090909091 L 82 27.315789473684212 L 68 17 L 65 35 Z" style="fill: rgb(206,136,115);"/>
    <path d="M 82 45 L 82 36 L 73 45 Z" style="fill: rgb(249,158,113);"/>
    <path d="M 73 45 L 82 36 L 82 31.90909090909091 L 65 35 Z" style="fill: rgb(249,170,117);"/>
    <path d="M 82 56.25 L 82 45 L 73 45 Z" style="fill: rgb(248,136,100);"/>
    <path d="M 69.36842105263158 0 L 60.526315789473685 0 L 53 11 L 74 11 Z" style="fill: rgb(173,117,126);"/>
    <path d="M 43.07692307692308 0 L 35.76470588235294 0 L 40 8 Z" style="fill: rgb(162,152,155);"/>
    <path d="M 21 46 L 31 67 L 37 64 Z" style="fill: rgb(197,133,114);"/>
    <path d="M 44 72 L 54.214285714285715 72 L 51 63 Z" style="fill: rgb(249,154,110);"/>
    <path d="M 66.6923076923077 72 L 69.57142857142857 72 L 82 62.333333333333336 L 82 60.15 L 65 61 Z" style="fill: rgb(247,123,94);"/>
    <path d="M 10 50 L 31 67 L 21 46 Z" style="fill: rgb(157,103,109);"/>
    <path d="M 78.30434782608695 0 L 69.36842105263158 0 L 74 11 Z" style="fill: rgb(179,115,131);"/>
    <path d="M 26 4 L 8 6 L 17 17 Z" style="fill: rgb(63,80,133);"/>
    <path d="M 12 35 L 10 50 L 21 46 Z" style="fill: rgb(161,131,130);"/>
    <path d="M 65 61 L 82 60.15 L 82 56.25 L 73 45 Z" style="fill: rgb(247,131,95);"/>
    <path d="M 54.214285714285715 72 L 58.8125 72 L 65 61 L 51 63 Z" style="fill: rgb(247,139,99);"/>
    <path d="M 37 72 L 44 72 L 51 63 L 37 64 Z" style="fill: rgb(249,168,118);"/>
    <path d="M 58.8125 72 L 66.6923076923077 72 L 65 61 Z" style="fill: rgb(247,126,95);"/>
    <path d="M 22.285714285714285 0 L 9.875 0 L 8 6 L 26 4 Z" style="fill: rgb(73,91,146);"/>
    <path d="M 17 17 L 0 20.238095238095237 L 0 24.5 L 12 35 Z" style="fill: rgb(101,103,138);"/>
    <path d="M 12 35 L 0 39 L 0 42.30769230769231 L 10 50 Z" style="fill: rgb(169,143,142);"/>
    <path d="M 27.53846153846154 0 L 22.285714285714285 0 L 26 4 Z" style="fill: rgb(86,96,143);"/>
    <path d="M 29.928571428571427 72 L 33.142857142857146 72 L 31 67 Z" style="fill: rgb(209,132,115);"/>
    <path d="M 31 67 L 33.142857142857146 72 L 37 72 L 37 64 Z" style="fill: rgb(222,145,116);"/>
    <path d="M 0 24.5 L 0 39 L 12 35 Z" style="fill: rgb(150,142,152);"/>
    <path d="M 18.857142857142858 72 L 29.928571428571427 72 L 31 67 Z" style="fill: rgb(175,102,110);"/>
    <path d="M 82 10.545454545454545 L 82 9 L 80 11 Z" style="fill: rgb(174,104,125);"/>
    <path d="M 80 11 L 81.43478260869566 0 L 78.30434782608695 0 L 74 11 Z" style="fill: rgb(175,108,126);"/>
    <path d="M 8 6 L 0 16 L 0 20.238095238095237 L 17 17 Z" style="fill: rgb(66,83,137);"/>
    <path d="M 0 16 L 8 6 L 0 3.6 Z" style="fill: rgb(77,95,150);"/>
    <path d="M 82 9 L 82 0 L 81.43478260869566 0 L 80 11 Z" style="fill: rgb(180,110,130);"/>
    <path d="M 13.666666666666666 72 L 18.857142857142858 72 L 31 67 L 10 50 Z" style="fill: rgb(159,97,111);"/>
    <path d="M 7 70 L 10.5 72 L 13.666666666666666 72 L 10 50 Z" style="fill: rgb(168,105,119);"/>
    <path d="M 0 46.875 L 0 57.85714285714286 L 1 60 L 10 50 Z" style="fill: rgb(176,127,133);"/>
    <path d="M 0 42.30769230769231 L 0 46.875 L 10 50 Z" style="fill: rgb(176,143,144);"/>
    <path d="M 82 10.545454545454547 L 80 11 L 82 14 Z" style="fill: rgb(166,96,116);"/>
    <path d="M 1 60 L 7 70 L 10 50 Z" style="fill: rgb(172,113,124);"/>
    <path d="M 5.5 0 L 0 0 L 0 3.6 L 8 6 Z" style="fill: rgb(84,103,159);"/>
    <path d="M 9.875 0 L 5.5 0 L 8 6 Z" style="fill: rgb(80,99,155);"/>
    <path d="M 82 72 L 82 62.333333333333336 L 69.57142857142857 72 Z" style="fill: rgb(247,111,94);"/>
    <path d="M 0 57.857142857142854 L 0 59.388888888888886 L 1 60 Z" style="fill: rgb(178,130,135);"/>
    <path d="M 1 60 L 0 61.875 L 0 72 L 1.4 72 L 7 70 Z" style="fill: rgb(179,112,130);"/>
    <path d="M 1.4000000000000004 72 L 10.5 72 L 7 70 Z" style="fill: rgb(175,105,125);"/>
    <path d="M 0 60.18181818181818 L 1 60 L 0 59.388888888888886 Z" style="fill: rgb(178,121,131);"/>
    <path d="M 0 60.18181818181818 L 0 61.875 L 1 60 Z" style="fill: rgb(179,114,130);"/>
  </g>
  <path d="M 12.385 70.063 L 8.075 70.063 C 7.722 70.063 7.465 69.983 7.305 69.823 C 7.145 69.663 7.065 69.406 7.065 69.053 L 7.065 67.513 C 4.898 67.2 3.438 66.553 2.685 65.573 C 1.925 64.593 1.545 63.403 1.545 62.003 L 1.545 52.703 C 1.545 51.843 1.672 51.063 1.925 50.363 C 2.178 49.663 2.628 49.063 3.275 48.563 C 3.915 48.056 4.805 47.663 5.945 47.383 C 7.085 47.103 8.522 46.963 10.255 46.963 C 11.995 46.963 13.428 47.103 14.555 47.383 C 15.682 47.663 16.568 48.056 17.215 48.563 C 17.862 49.063 18.308 49.663 18.555 50.363 C 18.808 51.063 18.935 51.843 18.935 52.703 L 18.935 62.003 C 18.935 62.71 18.852 63.366 18.685 63.973 C 18.518 64.58 18.228 65.116 17.815 65.583 C 17.408 66.05 16.845 66.45 16.125 66.783 C 15.405 67.123 14.495 67.366 13.395 67.513 L 13.395 69.053 C 13.395 69.406 13.315 69.663 13.155 69.823 C 12.995 69.983 12.738 70.063 12.385 70.063 Z M 10.065 65.383 L 10.065 67.543 L 10.345 67.543 L 10.345 65.383 C 12.472 65.37 13.925 65.016 14.705 64.323 C 15.492 63.63 15.885 62.723 15.885 61.603 L 15.885 53.343 C 15.885 52.223 15.485 51.313 14.685 50.613 C 13.878 49.913 12.385 49.563 10.205 49.563 C 8.018 49.563 6.532 49.913 5.745 50.613 C 4.965 51.313 4.575 52.223 4.575 53.343 L 4.575 61.603 C 4.575 62.723 4.958 63.63 5.725 64.323 C 6.485 65.016 7.932 65.37 10.065 65.383 Z M 4.855 61.603 L 4.855 53.343 C 4.855 52.303 5.228 51.46 5.975 50.813 C 6.722 50.166 8.132 49.843 10.205 49.843 C 12.272 49.843 13.688 50.166 14.455 50.813 C 15.222 51.46 15.605 52.303 15.605 53.343 L 15.605 61.603 C 15.605 62.65 15.222 63.496 14.455 64.143 C 13.688 64.783 12.272 65.103 10.205 65.103 C 8.132 65.103 6.722 64.783 5.975 64.143 C 5.228 63.496 4.855 62.65 4.855 61.603 Z M 7.905 53.743 L 7.905 61.383 C 7.905 61.756 8.045 62.07 8.325 62.323 C 8.605 62.576 9.248 62.703 10.255 62.703 C 11.262 62.703 11.905 62.576 12.185 62.323 C 12.465 62.07 12.605 61.756 12.605 61.383 L 12.605 53.743 C 12.605 53.383 12.465 53.08 12.185 52.833 C 11.905 52.58 11.262 52.453 10.255 52.453 C 9.248 52.453 8.605 52.58 8.325 52.833 C 8.045 53.08 7.905 53.383 7.905 53.743 ZM 37.751 67.543 L 23.501 67.543 C 23.148 67.543 22.891 67.463 22.731 67.303 C 22.571 67.143 22.491 66.886 22.491 66.533 L 22.491 48.393 C 22.491 48.04 22.571 47.783 22.731 47.623 C 22.891 47.463 23.148 47.383 23.501 47.383 L 27.841 47.383 C 28.194 47.383 28.451 47.463 28.611 47.623 C 28.771 47.783 28.851 48.04 28.851 48.393 L 28.851 62.253 L 32.681 62.253 L 32.681 57.713 C 32.681 57.36 32.761 57.103 32.921 56.943 C 33.081 56.783 33.338 56.703 33.691 56.703 L 37.751 56.703 C 38.104 56.703 38.361 56.783 38.521 56.943 C 38.681 57.103 38.761 57.36 38.761 57.713 L 38.761 66.533 C 38.761 66.886 38.681 67.143 38.521 67.303 C 38.361 67.463 38.104 67.543 37.751 67.543 Z M 25.541 49.903 L 25.541 65.023 L 35.851 65.023 L 35.851 59.223 L 35.571 59.223 L 35.571 64.743 L 25.821 64.743 L 25.821 49.903 L 25.541 49.903 ZM 59.031 52.703 L 59.031 62.253 C 59.031 63.113 58.905 63.893 58.651 64.593 C 58.405 65.293 57.958 65.89 57.311 66.383 C 56.665 66.876 55.778 67.263 54.651 67.543 C 53.525 67.823 52.091 67.963 50.351 67.963 C 48.618 67.963 47.181 67.823 46.041 67.543 C 44.901 67.263 44.011 66.876 43.371 66.383 C 42.725 65.89 42.275 65.293 42.021 64.593 C 41.768 63.893 41.641 63.113 41.641 62.253 L 41.641 52.703 C 41.641 51.843 41.768 51.063 42.021 50.363 C 42.275 49.663 42.725 49.063 43.371 48.563 C 44.011 48.056 44.901 47.663 46.041 47.383 C 47.181 47.103 48.618 46.963 50.351 46.963 C 52.091 46.963 53.525 47.103 54.651 47.383 C 55.778 47.663 56.665 48.056 57.311 48.563 C 57.958 49.063 58.405 49.663 58.651 50.363 C 58.905 51.063 59.031 51.843 59.031 52.703 Z M 55.981 61.603 L 55.981 53.343 C 55.981 52.223 55.581 51.313 54.781 50.613 C 53.975 49.913 52.481 49.563 50.301 49.563 C 48.115 49.563 46.628 49.913 45.841 50.613 C 45.061 51.313 44.671 52.223 44.671 53.343 L 44.671 61.603 C 44.671 62.723 45.061 63.633 45.841 64.333 C 46.628 65.033 48.115 65.383 50.301 65.383 C 52.481 65.383 53.975 65.033 54.781 64.333 C 55.581 63.633 55.981 62.723 55.981 61.603 Z M 44.951 61.603 L 44.951 53.343 C 44.951 52.303 45.325 51.46 46.071 50.813 C 46.818 50.166 48.228 49.843 50.301 49.843 C 52.368 49.843 53.785 50.166 54.551 50.813 C 55.318 51.46 55.701 52.303 55.701 53.343 L 55.701 61.603 C 55.701 62.65 55.318 63.496 54.551 64.143 C 53.785 64.783 52.368 65.103 50.301 65.103 C 48.228 65.103 46.818 64.783 46.071 64.143 C 45.325 63.496 44.951 62.65 44.951 61.603 Z M 48.001 53.713 L 48.001 61.243 C 48.001 61.616 48.141 61.93 48.421 62.183 C 48.701 62.436 49.345 62.563 50.351 62.563 C 51.358 62.563 52.001 62.436 52.281 62.183 C 52.561 61.93 52.701 61.616 52.701 61.243 L 52.701 53.713 C 52.701 53.36 52.561 53.056 52.281 52.803 C 52.001 52.55 51.358 52.423 50.351 52.423 C 49.345 52.423 48.701 52.55 48.421 52.803 C 48.141 53.056 48.001 53.36 48.001 53.713 ZM 77.987 67.543 L 69.167 67.543 C 66.834 67.543 65.104 67.076 63.977 66.143 C 62.844 65.21 62.277 63.773 62.277 61.833 L 62.277 53.093 C 62.277 51.153 62.844 49.716 63.977 48.783 C 65.104 47.85 66.834 47.383 69.167 47.383 L 76.167 47.383 C 76.521 47.383 76.777 47.463 76.937 47.623 C 77.097 47.783 77.177 48.04 77.177 48.393 L 77.177 51.783 C 77.177 52.136 77.097 52.393 76.937 52.553 C 76.777 52.706 76.521 52.783 76.167 52.783 L 70.347 52.783 C 69.767 52.783 69.337 52.9 69.057 53.133 C 68.777 53.366 68.637 53.716 68.637 54.183 L 68.637 60.883 C 68.637 61.35 68.744 61.693 68.957 61.913 C 69.171 62.14 69.494 62.253 69.927 62.253 L 72.637 62.253 L 72.637 57.883 C 72.637 57.53 72.717 57.273 72.877 57.113 C 73.037 56.953 73.294 56.873 73.647 56.873 L 77.987 56.873 C 78.341 56.873 78.597 56.953 78.757 57.113 C 78.917 57.273 78.997 57.53 78.997 57.883 L 78.997 66.533 C 78.997 66.886 78.917 67.143 78.757 67.303 C 78.597 67.463 78.341 67.543 77.987 67.543 Z M 70.377 65.023 L 75.947 65.023 L 75.947 59.393 L 75.667 59.393 L 75.667 64.743 L 70.377 64.743 C 68.491 64.743 67.224 64.49 66.577 63.983 C 65.937 63.483 65.617 62.626 65.617 61.413 L 65.617 53.573 C 65.617 52.34 65.904 51.466 66.477 50.953 C 67.057 50.44 68.171 50.183 69.817 50.183 L 74.657 50.183 L 74.657 49.903 L 69.817 49.903 C 68.024 49.903 66.827 50.183 66.227 50.743 C 65.634 51.303 65.337 52.246 65.337 53.573 L 65.337 61.413 C 65.337 62.066 65.407 62.62 65.547 63.073 C 65.687 63.533 65.944 63.906 66.317 64.193 C 66.691 64.486 67.204 64.696 67.857 64.823 C 68.511 64.956 69.351 65.023 70.377 65.023 Z" transform="matrix(1, 0, 0, 1, 0, 0)" style="fill: rgb(51, 51, 51); white-space: pre;"/>
</svg>