<?xml version="1.0" encoding="utf-8"?>
<svg viewBox="0 0 82 72" style="shape-rendering: crispedges;" xmlns="http://www.w3.org/2000/svg" xmlns:xlink="http://www.w3.org/1999/xlink">
  <defs>
    <linearGradient id="linear-gradient" x1="-3918.19" y1="8047.29" x2="-3910.1" y2="8047.29" gradientTransform="matrix(-0.958255, 0, 0, -0.98628, -3646.548923, 7984.551758)" gradientUnits="userSpaceOnUse">
      <stop offset="0" stop-color="#f2cc0c"/>
      <stop offset="1" stop-color="#ff9830"/>
    </linearGradient>
    <linearGradient id="linear-gradient-2" x1="-3918.19" y1="8010.84" x2="-3910.1" y2="8010.84" gradientTransform="matrix(-0.958255, 0, 0, -0.98628, -3551.116306, 8027.637207)" xlink:href="#linear-gradient"/>
    <linearGradient id="linear-gradient-1" x1="-3918.19" y1="8010.84" x2="-3910.1" y2="8010.84" gradientTransform="matrix(-0.958255, 0, 0, -0.98628, -3537.084473, 8027.698242)" xlink:href="#gradient-1"/>
    <linearGradient id="gradient-1" x1="-3918.19" y1="8047.29" x2="-3910.1" y2="8047.29" gradientTransform="matrix(-0.958255, 0, 0, -0.98628, -3646.548923, 7984.551758)" gradientUnits="userSpaceOnUse">
      <stop offset="0" stop-color="#f2cc0c"/>
      <stop offset="1" stop-color="#ff9830"/>
    </linearGradient>
    <linearGradient id="gradient-1-1" x1="-3918.19" y1="8010.84" x2="-3910.1" y2="8010.84" gradientTransform="matrix(-0.958255, 0, 0, -0.98628, -3510.20459, 8027.871094)" xlink:href="#gradient-2"/>
    <linearGradient id="gradient-2" x1="-3918.19" y1="8047.29" x2="-3910.1" y2="8047.29" gradientTransform="matrix(-0.958255, 0, 0, -0.98628, -3646.548923, 7984.551758)" gradientUnits="userSpaceOnUse">
      <stop offset="0" stop-color="#f2cc0c"/>
      <stop offset="1" stop-color="#ff9830"/>
    </linearGradient>
  </defs>
  <g id="Layer_2" data-name="Layer 2" transform="matrix(1, 0, 0, 1, -97.884468, -42.507584)">
    <g id="Layer_1-2" data-name="Layer 1">
      <path class="cls-1" d="M 176.494 51.575 L 114.256 51.575 L 114.256 43.685 L 176.494 43.685 C 177.023 43.685 177.453 44.127 177.453 44.671 L 177.453 50.589 C 177.453 51.133 177.023 51.575 176.494 51.575 Z" style="fill: rgb(56, 101, 171);"/>
      <path class="cls-1" d="M 157.329 69.595 L 114.256 69.595 L 114.256 61.704 L 157.377 61.704 C 157.906 61.704 158.335 62.146 158.335 62.691 L 158.335 68.608 C 158.336 69.173 157.877 69.623 157.329 69.595 Z" style="fill: rgb(56, 101, 171);"/>
      <path class="cls-2" d="M 106.954 62.799 C 106.585 62.434 106.148 62.149 105.67 61.961 C 104.723 61.566 103.665 61.566 102.718 61.961 C 102.244 62.15 101.81 62.435 101.444 62.799 C 101.089 63.18 100.812 63.629 100.629 64.121 C 100.009 65.606 100.332 67.329 101.444 68.47 C 101.815 68.833 102.247 69.124 102.718 69.328 C 103.657 69.762 104.731 69.762 105.67 69.328 C 106.141 69.127 106.576 68.844 106.954 68.49 C 108.413 66.898 108.413 64.411 106.954 62.819 Z" style="fill: rgb(138, 184, 255);"/>
      <path class="cls-3" d="M 106.954 44.819 C 106.579 44.461 106.144 44.177 105.67 43.981 C 104.723 43.586 103.665 43.586 102.718 43.981 C 102.247 44.177 101.815 44.462 101.444 44.819 C 101.089 45.2 100.812 45.649 100.629 46.141 C 100.006 47.628 100.328 49.357 101.444 50.5 C 101.821 50.849 102.252 51.132 102.718 51.339 C 103.659 51.763 104.729 51.763 105.67 51.339 C 106.138 51.13 106.571 50.847 106.954 50.5 C 108.052 49.348 108.373 47.63 107.768 46.141 C 107.585 45.649 107.308 45.2 106.954 44.819 Z" style="fill: url(#linear-gradient);"/>
      <path class="cls-4" d="M 106.954 80.779 C 106.585 80.414 106.148 80.129 105.67 79.941 C 104.726 79.535 103.663 79.535 102.718 79.941 C 102.244 80.13 101.81 80.415 101.444 80.779 C 101.09 81.157 100.813 81.603 100.629 82.091 C 100.006 83.578 100.328 85.307 101.444 86.45 C 101.819 86.802 102.25 87.086 102.718 87.288 C 103.659 87.713 104.729 87.713 105.67 87.288 C 106.139 87.084 106.573 86.8 106.954 86.45 C 108.052 85.298 108.373 83.58 107.768 82.091 C 107.584 81.603 107.307 81.157 106.954 80.779 Z" style="fill: url(#linear-gradient-2);"/>
      <path class="cls-1" d="M 176.22 102.593 L 113.982 102.593 L 113.982 94.703 L 176.22 94.703 C 176.749 94.703 177.179 95.145 177.179 95.689 L 177.179 101.607 C 177.179 102.151 176.749 102.593 176.22 102.593 Z" style="fill: rgb(56, 101, 171);"/>
      <path class="cls-2" d="M 106.904 96.135 C 106.535 95.77 106.098 95.485 105.62 95.297 C 104.673 94.902 103.615 94.902 102.668 95.297 C 102.194 95.486 101.76 95.771 101.394 96.135 C 101.039 96.516 100.762 96.965 100.579 97.457 C 99.959 98.942 100.282 100.665 101.394 101.806 C 101.765 102.169 102.197 102.46 102.668 102.664 C 103.607 103.098 104.681 103.098 105.62 102.664 C 106.091 102.463 106.526 102.18 106.904 101.826 C 108.363 100.234 108.363 97.747 106.904 96.155 Z" style="fill: rgb(138, 184, 255);"/>
      <path class="cls-4" d="M 120.985 80.84 C 120.616 80.475 120.179 80.19 119.701 80.002 C 118.757 79.596 117.694 79.596 116.749 80.002 C 116.275 80.191 115.841 80.476 115.475 80.84 C 115.121 81.218 114.844 81.664 114.66 82.152 C 114.037 83.639 114.359 85.368 115.475 86.511 C 115.85 86.863 116.281 87.147 116.749 87.349 C 117.69 87.774 118.76 87.774 119.701 87.349 C 120.17 87.145 120.604 86.861 120.985 86.511 C 122.083 85.359 122.404 83.641 121.799 82.152 C 121.615 81.664 121.338 81.218 120.985 80.84 Z" style="fill: url(#linear-gradient-1);"/>
      <path class="cls-2" d="M 134.865 81.033 C 134.496 80.668 134.059 80.383 133.581 80.195 C 132.634 79.8 131.576 79.8 130.629 80.195 C 130.155 80.384 129.721 80.669 129.355 81.033 C 129 81.414 128.723 81.863 128.54 82.355 C 127.92 83.84 128.243 85.563 129.355 86.704 C 129.726 87.067 130.158 87.358 130.629 87.562 C 131.568 87.996 132.642 87.996 133.581 87.562 C 134.052 87.361 134.487 87.078 134.865 86.724 C 136.324 85.132 136.324 82.645 134.865 81.053 Z" style="fill: rgb(138, 184, 255);"/>
      <path class="cls-4" d="M 147.865 81.013 C 147.496 80.648 147.059 80.363 146.581 80.175 C 145.637 79.769 144.574 79.769 143.629 80.175 C 143.155 80.364 142.721 80.649 142.355 81.013 C 142.001 81.391 141.724 81.837 141.54 82.325 C 140.917 83.812 141.239 85.541 142.355 86.684 C 142.73 87.036 143.161 87.32 143.629 87.522 C 144.57 87.947 145.64 87.947 146.581 87.522 C 147.05 87.318 147.484 87.034 147.865 86.684 C 148.963 85.532 149.284 83.814 148.679 82.325 C 148.495 81.837 148.218 81.391 147.865 81.013 Z" style="fill: url(#gradient-1-1);"/>
      <path class="cls-2" d="M 161.877 80.961 C 161.508 80.596 161.071 80.311 160.593 80.123 C 159.646 79.728 158.588 79.728 157.641 80.123 C 157.167 80.312 156.733 80.597 156.367 80.961 C 156.012 81.342 155.735 81.791 155.552 82.283 C 154.932 83.768 155.255 85.491 156.367 86.632 C 156.738 86.995 157.17 87.286 157.641 87.49 C 158.58 87.924 159.654 87.924 160.593 87.49 C 161.064 87.289 161.499 87.006 161.877 86.652 C 163.336 85.06 163.336 82.573 161.877 80.981 Z" style="fill: rgb(138, 184, 255);"/>
    </g>
  </g>
</svg>